<svg width="20" height="21" viewBox="0 0 20 21" fill="none" xmlns="http://www.w3.org/2000/svg">
<path d="M14.192 10.6913L7.94205 16.9413C7.88398 16.9994 7.81504 17.0454 7.73917 17.0769C7.6633 17.1083 7.58198 17.1245 7.49986 17.1245C7.41774 17.1245 7.33642 17.1083 7.26055 17.0769C7.18468 17.0454 7.11574 16.9994 7.05767 16.9413C6.9996 16.8832 6.95354 16.8143 6.92211 16.7384C6.89069 16.6626 6.87451 16.5812 6.87451 16.4991C6.87451 16.417 6.89069 16.3357 6.92211 16.2598C6.95354 16.1839 6.9996 16.115 7.05767 16.0569L12.8663 10.2491L7.05767 4.44131C6.9404 4.32404 6.87451 4.16498 6.87451 3.99913C6.87451 3.83327 6.9404 3.67421 7.05767 3.55694C7.17495 3.43966 7.33401 3.37378 7.49986 3.37378C7.66571 3.37378 7.82477 3.43966 7.94205 3.55694L14.192 9.80694C14.2502 9.86498 14.2963 9.93392 14.3277 10.0098C14.3592 10.0857 14.3754 10.167 14.3754 10.2491C14.3754 10.3313 14.3592 10.4126 14.3277 10.4885C14.2963 10.5643 14.2502 10.6333 14.192 10.6913Z" fill="#F7F7F8"/>
</svg>
