<svg width="20" height="21" viewBox="0 0 20 21" fill="none" xmlns="http://www.w3.org/2000/svg">
<path d="M17.3172 10.6913L11.6922 16.3163C11.5749 16.4336 11.4159 16.4995 11.25 16.4995C11.0841 16.4995 10.9251 16.4336 10.8078 16.3163C10.6905 16.199 10.6247 16.04 10.6247 15.8741C10.6247 15.7083 10.6905 15.5492 10.8078 15.4319L15.3664 10.8741H3.125C2.95924 10.8741 2.80027 10.8083 2.68306 10.6911C2.56585 10.5739 2.5 10.4149 2.5 10.2491C2.5 10.0834 2.56585 9.9244 2.68306 9.80719C2.80027 9.68997 2.95924 9.62413 3.125 9.62413H15.3664L10.8078 5.06631C10.6905 4.94904 10.6247 4.78998 10.6247 4.62413C10.6247 4.45827 10.6905 4.29921 10.8078 4.18194C10.9251 4.06466 11.0841 3.99878 11.25 3.99878C11.4159 3.99878 11.5749 4.06466 11.6922 4.18194L17.3172 9.80694C17.3753 9.86498 17.4214 9.93392 17.4529 10.0098C17.4843 10.0857 17.5005 10.167 17.5005 10.2491C17.5005 10.3313 17.4843 10.4126 17.4529 10.4885C17.4214 10.5643 17.3753 10.6333 17.3172 10.6913Z" fill="#F7F7F8"/>
</svg>
