<svg width="24" height="25" viewBox="0 0 24 25" fill="none" xmlns="http://www.w3.org/2000/svg">
<path d="M13.125 13.3115H13.0625V13.374V20.499C13.0625 20.7808 12.9506 21.0511 12.7513 21.2503C12.552 21.4496 12.2818 21.5615 12 21.5615C11.7182 21.5615 11.448 21.4496 11.2487 21.2503C11.0494 21.0511 10.9375 20.7808 10.9375 20.499V13.374V13.3115H10.875H3.75C3.46821 13.3115 3.19796 13.1996 2.9987 13.0003C2.79944 12.8011 2.6875 12.5308 2.6875 12.249C2.6875 11.9672 2.79944 11.697 2.9987 11.4977C3.19796 11.2985 3.46821 11.1865 3.75 11.1865H10.875H10.9375V11.124V3.99902C10.9375 3.71723 11.0494 3.44698 11.2487 3.24772C11.448 3.04847 11.7182 2.93652 12 2.93652C12.2818 2.93652 12.552 3.04847 12.7513 3.24772C12.9506 3.44698 13.0625 3.71723 13.0625 3.99902V11.124V11.1865H13.125H20.25C20.5318 11.1865 20.802 11.2985 21.0013 11.4977C21.2006 11.697 21.3125 11.9672 21.3125 12.249C21.3125 12.5308 21.2006 12.8011 21.0013 13.0003C20.802 13.1996 20.5318 13.3115 20.25 13.3115H13.125Z" fill="#191A1F" stroke="#191A1F" stroke-width="0.125"/>
</svg>
