<svg width="207" height="32" viewBox="0 0 207 32" fill="none" xmlns="http://www.w3.org/2000/svg">
<g clip-path="url(#clip0_4888_3962)">
<path d="M42.8557 5.35492H29.5802L30.0579 5.83253V9.30065L29.5802 9.77826H41.4988V14.3373H29.5802L30.0579 14.8149V22.3861H24.8584V0.795898H42.8503V5.35492H42.8557Z" fill="#F7F7F8"/>
<path d="M56.5598 9.78324H55.0944C51.9465 9.78324 50.6439 11.3029 50.6439 14.0763V22.3911H45.5259V5.59328H50.6439V7.59057H50.6982C51.6589 6.17944 53.2328 5.40332 55.5232 5.40332H56.5652V9.77781L56.5598 9.78324Z" fill="#F7F7F8"/>
<path d="M76.5815 15.8627H63.2247L63.7023 16.3132C64.4458 17.5941 65.9438 18.6036 67.8597 18.6036C69.5639 18.6036 70.8719 18.126 72.0714 17.2196L74.975 20.1504C73.1351 21.7786 70.8719 22.6578 67.8326 22.6578C61.4336 22.6578 58.1826 18.8749 58.1826 14.0988C58.1826 9.3227 61.5965 5.32812 67.5123 5.32812C73.4282 5.32812 76.7118 9.24671 76.7118 14.0988C76.7118 14.6036 76.6847 15.2983 76.5761 15.8573L76.5815 15.8627ZM71.6209 11.8899L71.1704 11.434C70.5028 10.1531 69.2762 9.32813 67.4906 9.32813C65.705 9.32813 64.4784 10.1802 63.7837 11.434L63.3061 11.8899H71.6209Z" fill="#F7F7F8"/>
<path d="M97.5102 15.8627H84.1534L84.631 16.3132C85.3746 17.5941 86.8725 18.6036 88.7884 18.6036C90.4926 18.6036 91.8006 18.126 93.0001 17.2196L95.9037 20.1504C94.0638 21.7786 91.8006 22.6578 88.7613 22.6578C82.3623 22.6578 79.1113 18.8749 79.1113 14.0988C79.1113 9.3227 82.5252 5.32812 88.441 5.32812C94.3569 5.32812 97.6405 9.24671 97.6405 14.0988C97.6405 14.6036 97.6134 15.2983 97.5048 15.8573L97.5102 15.8627ZM92.5496 11.8899L92.0991 11.434C91.4316 10.1531 90.205 9.32813 88.4193 9.32813C86.6337 9.32813 85.4071 10.1802 84.7124 11.434L84.2348 11.8899H92.5496Z" fill="#F7F7F8"/>
<path d="M116.891 22.3918H100.175V19.0865L107.637 11.4338L109.586 10.0227V9.96845H100.359V5.62109H116.81V8.81784L109.211 16.4705L107.241 17.9902V18.0444H116.891V22.3918Z" fill="#F7F7F8"/>
<path d="M131.872 15.0591H125.5L125.847 15.5367L124.17 22.3861H119.025L124.355 0.795898H135.443C140.642 0.795898 143.068 3.7267 142.026 7.91123C141.038 11.9655 137.12 15.0537 131.872 15.0537V15.0591ZM134.298 5.35492H127.899L128.246 5.83253L127.204 10.0171L126.618 10.4947H133.017C135.361 10.4947 136.458 9.40377 136.8 7.91123C137.201 6.36442 136.642 5.34949 134.292 5.34949L134.298 5.35492Z" fill="#F7F7F8"/>
<path d="M158.72 22.4187H153.656L153.922 21.3549H153.868C152.777 22.1256 150.964 22.6629 149.097 22.6629C143.339 22.6629 141.553 19.0103 142.78 14.0496C144.007 9.04013 147.578 5.36035 153.391 5.36035C155.203 5.36035 156.804 5.91937 157.494 6.69549H157.548L157.814 5.60458H162.878L158.72 22.4241V22.4187ZM152.962 9.67514C150.085 9.67514 148.511 11.2491 147.844 14.0496C147.149 16.7959 147.925 18.3427 150.829 18.3427C153.732 18.3427 155.252 16.7959 155.947 14.0496C156.642 11.222 155.865 9.67514 152.962 9.67514Z" fill="#F7F7F8"/>
<path d="M167.621 22.3915H162.557L168.077 -0.00195312H173.141L167.621 22.3915ZM182.096 22.3915H175.567L169.993 13.8054L179.615 5.59371H185.879L176.147 13.7782V13.8325L182.09 22.3915H182.096Z" fill="#F7F7F8"/>
<path d="M0.000488281 31.0801H65.1022" stroke="#FF3723" stroke-width="0.75441" stroke-miterlimit="10"/>
<path d="M0.000488281 28.6328H66.6165" stroke="#FF3723" stroke-width="0.75441" stroke-miterlimit="10"/>
<path d="M0.000488281 26.1855H68.1308" stroke="#FF3723" stroke-width="0.75441" stroke-miterlimit="10"/>
<path d="M206.633 26.7236H142.068" stroke="#FF3723" stroke-width="0.75441" stroke-miterlimit="10"/>
<path d="M206.633 29.1709H140.56" stroke="#FF3723" stroke-width="0.75441" stroke-miterlimit="10"/>
<path d="M206.633 31.6182H139.045" stroke="#FF3723" stroke-width="0.75441" stroke-miterlimit="10"/>
<path d="M0.000488281 21.8877H21.1837" stroke="#F7F7F8" stroke-width="0.7327" stroke-miterlimit="10"/>
<path d="M0.000488281 19.4395H21.1837" stroke="#F7F7F8" stroke-width="0.7327" stroke-miterlimit="10"/>
<path d="M0.000488281 16.9912H21.1837" stroke="#F7F7F8" stroke-width="0.7327" stroke-miterlimit="10"/>
<path d="M185.352 21.8877H206.535" stroke="#F7F7F8" stroke-width="0.776119" stroke-miterlimit="10"/>
<path d="M185.352 19.4395H206.535" stroke="#F7F7F8" stroke-width="0.776119" stroke-miterlimit="10"/>
<path d="M185.352 16.9912H206.535" stroke="#F7F7F8" stroke-width="0.776119" stroke-miterlimit="10"/>
<path d="M72.5388 25.8213H73.1412L70.5144 31.0153H73.0978L72.8319 31.5581H69.646L72.5442 25.8213H72.5388Z" fill="#FF3723" stroke="#FF3723" stroke-width="0.189959" stroke-miterlimit="10"/>
<path d="M82.6334 25.6808C83.4367 25.6808 84.0174 25.9359 84.3648 26.4406C84.7175 26.9508 84.7501 27.5912 84.4679 28.3619C84.126 29.3063 83.4964 30.0987 82.5846 30.7391C81.6728 31.3796 80.7121 31.6998 79.6972 31.6998C78.8342 31.6998 78.2372 31.4555 77.9007 30.9562C77.5642 30.4623 77.5371 29.8165 77.8302 29.0186C78.0527 28.3999 78.4163 27.8355 78.9156 27.3199C79.415 26.8043 79.9903 26.4026 80.6416 26.1095C81.2983 25.8165 81.9604 25.6699 82.6334 25.6699V25.6808ZM82.4218 26.2181C81.8519 26.2181 81.2983 26.3375 80.761 26.5763C80.2237 26.8151 79.746 27.157 79.3227 27.5967C78.8994 28.0363 78.6009 28.503 78.4218 29.0024C78.2698 29.4257 78.2264 29.8002 78.2915 30.1367C78.3566 30.4732 78.5303 30.7283 78.7962 30.9019C79.0676 31.081 79.4258 31.1679 79.8817 31.1679C80.419 31.1679 80.9618 31.0431 81.5099 30.7934C82.0581 30.5437 82.5412 30.2018 82.9645 29.7568C83.3878 29.3171 83.6918 28.8395 83.8763 28.3239C84.1205 27.6455 84.0717 27.1082 83.7189 26.7066C83.4258 26.3755 82.9916 26.2127 82.4163 26.2127L82.4218 26.2181Z" fill="#FF3723" stroke="#FF3723" stroke-width="0.189959" stroke-miterlimit="10"/>
<path d="M95.2959 27.0597L94.6935 27.3962C94.5307 27.0217 94.281 26.7286 93.95 26.5278C93.6189 26.327 93.239 26.2238 92.8156 26.2238C92.338 26.2238 91.8387 26.3487 91.3068 26.5929C90.7803 26.8371 90.3136 27.1628 89.9174 27.5698C89.5158 27.9769 89.2335 28.4111 89.0653 28.8778C88.8373 29.5074 88.8753 30.0447 89.1847 30.4898C89.4941 30.9348 89.9825 31.1574 90.6609 31.1574C91.0626 31.1574 91.4805 31.0759 91.9092 30.9185C92.338 30.7611 92.7179 30.5495 93.0436 30.289C93.3692 30.0284 93.6569 29.7028 93.9011 29.312H91.7084L91.9147 28.7476H94.8238C94.4438 29.6268 93.8577 30.3378 93.0599 30.886C92.262 31.4341 91.4208 31.7055 90.5307 31.7055C89.6406 31.7055 88.9676 31.4396 88.5931 30.9077C88.2186 30.3758 88.1752 29.7028 88.4683 28.8995C88.6799 28.3242 89.0219 27.7869 89.5049 27.293C89.9879 26.7937 90.5415 26.4029 91.1765 26.1153C91.8061 25.8276 92.4303 25.6865 93.0381 25.6865C94.1399 25.6865 94.8997 26.1479 95.3068 27.0651L95.2959 27.0597Z" fill="#FF3723" stroke="#FF3723" stroke-width="0.189959" stroke-miterlimit="10"/>
<path d="M100.81 25.8213H101.413L98.5146 31.5581H97.9121L100.81 25.8213Z" fill="#FF3723" stroke="#FF3723" stroke-width="0.189959" stroke-miterlimit="10"/>
<path d="M108.435 26.8861L107.822 27.0218C107.833 26.7775 107.779 26.5876 107.659 26.4465C107.534 26.3054 107.377 26.2348 107.176 26.2348C106.954 26.2348 106.748 26.3054 106.552 26.4519C106.362 26.5984 106.221 26.7884 106.134 27.0326C106.058 27.2443 106.047 27.4668 106.113 27.7002C106.15 27.8467 106.292 28.0693 106.53 28.3786C106.78 28.6934 106.927 28.9919 106.97 29.2687C107.013 29.5401 106.992 29.8115 106.894 30.072C106.791 30.3488 106.617 30.6201 106.362 30.8752C106.113 31.1303 105.825 31.3366 105.499 31.4831C105.179 31.6296 104.87 31.7056 104.566 31.7056C104.18 31.7056 103.893 31.5917 103.697 31.3528C103.502 31.1195 103.426 30.7775 103.469 30.3216L104.088 30.1425C104.05 30.4845 104.099 30.7396 104.235 30.9078C104.37 31.0761 104.566 31.1575 104.821 31.1575C105.108 31.1575 105.396 31.0543 105.678 30.8481C105.966 30.6419 106.156 30.3868 106.27 30.0883C106.351 29.8657 106.368 29.6541 106.33 29.4424C106.286 29.2307 106.151 28.9811 105.912 28.6826C105.662 28.3623 105.51 28.1127 105.461 27.939C105.385 27.6514 105.402 27.3529 105.521 27.0326C105.662 26.6419 105.912 26.3162 106.275 26.0611C106.634 25.806 107.013 25.6758 107.41 25.6758C107.741 25.6758 108.001 25.7789 108.186 25.9797C108.37 26.1805 108.457 26.4845 108.43 26.8807L108.435 26.8861Z" fill="#FF3723" stroke="#FF3723" stroke-width="0.189959" stroke-miterlimit="10"/>
<path d="M112.826 25.8213H116.397L116.12 26.364H114.617L111.996 31.5581H111.393L114.015 26.364H112.549L112.826 25.8213Z" fill="#FF3723" stroke="#FF3723" stroke-width="0.189959" stroke-miterlimit="10"/>
<path d="M120.365 25.8213H120.967L118.069 31.5581H117.467L120.365 25.8213Z" fill="#FF3723" stroke="#FF3723" stroke-width="0.189959" stroke-miterlimit="10"/>
<path d="M130.726 26.6142L130.188 27.0918C129.765 26.5219 129.146 26.2343 128.338 26.2343C127.811 26.2343 127.268 26.3591 126.72 26.6033C126.172 26.853 125.694 27.1841 125.282 27.602C124.869 28.0199 124.576 28.4704 124.403 28.9534C124.245 29.3822 124.207 29.7621 124.289 30.0986C124.365 30.4296 124.56 30.6902 124.864 30.8801C125.173 31.0701 125.57 31.1623 126.053 31.1623C126.791 31.1623 127.567 30.9398 128.365 30.4893L128.533 30.9453C127.952 31.2438 127.469 31.4446 127.089 31.5477C126.709 31.6508 126.297 31.7051 125.852 31.7051C125.027 31.7051 124.424 31.5043 124.05 31.1081C123.556 30.5762 123.464 29.8652 123.789 28.9751C124.126 28.0579 124.756 27.2763 125.678 26.6413C126.601 26.0009 127.578 25.6807 128.604 25.6807C129.07 25.6807 129.472 25.7512 129.808 25.8923C130.145 26.0334 130.449 26.2777 130.731 26.6142H130.726Z" fill="#FF3723" stroke="#FF3723" stroke-width="0.189959" stroke-miterlimit="10"/>
<path d="M137.331 26.8861L136.718 27.0218C136.729 26.7775 136.674 26.5876 136.549 26.4465C136.425 26.3054 136.267 26.2348 136.066 26.2348C135.844 26.2348 135.638 26.3054 135.442 26.4519C135.252 26.5984 135.111 26.7884 135.024 27.0326C134.948 27.2443 134.938 27.4668 135.003 27.7002C135.041 27.8467 135.182 28.0693 135.421 28.3786C135.67 28.6934 135.817 28.9919 135.86 29.2687C135.904 29.5401 135.882 29.8115 135.784 30.072C135.681 30.3488 135.507 30.6201 135.252 30.8752C135.003 31.1303 134.715 31.3366 134.389 31.4831C134.069 31.6296 133.76 31.7056 133.456 31.7056C133.07 31.7056 132.783 31.5917 132.587 31.3528C132.392 31.1195 132.316 30.7775 132.359 30.3216L132.978 30.1425C132.94 30.4845 132.989 30.7396 133.125 30.9078C133.26 31.0761 133.45 31.1575 133.711 31.1575C133.999 31.1575 134.286 31.0543 134.568 30.8481C134.851 30.6419 135.046 30.3868 135.155 30.0883C135.236 29.8657 135.258 29.6541 135.214 29.4424C135.171 29.2307 135.035 28.9811 134.796 28.6826C134.547 28.3623 134.395 28.1127 134.346 27.939C134.27 27.6514 134.286 27.3529 134.406 27.0326C134.547 26.6419 134.796 26.3162 135.16 26.0611C135.524 25.806 135.898 25.6758 136.294 25.6758C136.631 25.6758 136.886 25.7789 137.07 25.9797C137.255 26.1805 137.342 26.4845 137.315 26.8807L137.331 26.8861Z" fill="#FF3723" stroke="#FF3723" stroke-width="0.189959" stroke-miterlimit="10"/>
</g>
<defs>
<clipPath id="clip0_4888_3962">
<rect width="206.632" height="32" fill="white"/>
</clipPath>
</defs>
</svg>
